<?xml version="1.0" encoding="utf-8"?>
<!-- Generator: Adobe Illustrator 21.0.0, SVG Export Plug-In . SVG Version: 6.00 Build 0)  -->
<svg version="1.1" id="Layer_1" xmlns="http://www.w3.org/2000/svg" xmlns:xlink="http://www.w3.org/1999/xlink" x="0px" y="0px"
	 viewBox="0 0 1792 1792" style="enable-background:new 0 0 1792 1792;" xml:space="preserve">
<path d="M1193.3,921.2c0-8.7-2.8-15.8-8.4-21.4s-12.7-8.4-21.4-8.4H955.5V564.4c0-8.1-2.9-15-8.8-20.9s-12.9-8.8-20.9-8.8H747.3
	c-8.1,0-15,2.9-20.9,8.8s-8.8,12.9-8.8,20.9v327.1H509.5c-8.1,0-15,2.9-20.9,8.8s-8.8,12.9-8.8,20.9c0,8.7,2.8,15.8,8.4,21.4
	l327.1,327.1c5.6,5.6,12.7,8.4,21.4,8.4c8.7,0,15.8-2.8,21.4-8.4L1184,943.5C1190.2,936.1,1193.3,928.6,1193.3,921.2z M1788,1129.3
	c0,98.5-34.8,182.6-104.5,252.3s-153.8,104.5-252.3,104.5H420.3c-114.6,0-212.6-40.7-294.1-122.2S4,1184.5,4,1069.9
	c0-80.5,21.7-154.9,65-223s101.6-119.2,174.7-153.3c-1.2-18.6-1.9-31.9-1.9-40c0-131.3,46.5-243.4,139.4-336.4
	s205-139.4,336.4-139.4c96.6,0,185.1,26.9,265.3,80.8c80.2,53.9,138.6,125.4,175.1,214.6c44-38.4,95.4-57.6,154.2-57.6
	c65.7,0,121.7,23.2,168.2,69.7c46.5,46.5,69.7,102.5,69.7,168.2c0,47.1-12.7,89.8-38.1,128.2c80.5,19.2,146.7,61.2,198.4,125.9
	C1762.1,972.5,1788,1046.3,1788,1129.3z"/>
</svg>
