<?xml version="1.0" encoding="utf-8"?>
<!-- Generator: Adobe Illustrator 21.0.0, SVG Export Plug-In . SVG Version: 6.00 Build 0)  -->
<svg version="1.1" id="Layer_1" xmlns="http://www.w3.org/2000/svg" xmlns:xlink="http://www.w3.org/1999/xlink" x="0px" y="0px"
	 viewBox="0 0 1792 1792" style="enable-background:new 0 0 1792 1792;" xml:space="preserve">
<path d="M1375.5,859.8l13.9,243.6c2.1,35.5-19,68.3-63.2,98.7s-104.6,54.3-181.1,72.1c-76.6,17.7-159.6,26.6-249,26.6
	s-172.4-8.9-249-26.6c-76.6-17.7-137-41.8-181.1-72.1s-65.3-63.2-63.2-98.7l13.9-243.6L859,999.3c11.3,3.6,23.6,5.4,37,5.4
	s25.7-1.8,37-5.4L1375.5,859.8z M1784,610c0,11.8-5.7,19.8-17,23.9L903.7,905.2c-2.1,0.5-4.6,0.8-7.7,0.8s-5.7-0.3-7.7-0.8
	L385.7,746.4c-22.1,17.5-40.3,46.1-54.7,85.9c-14.4,39.8-23.1,85.7-26.2,137.6c32.4,18.5,48.6,46.5,48.6,84
	c0,35.5-14.9,63-44.7,82.5l44.7,333.8c1,7.2-1,13.6-6.2,19.3c-4.6,5.7-10.8,8.5-18.5,8.5h-148c-7.7,0-13.9-2.8-18.5-8.5
	c-5.1-5.7-7.2-12.1-6.2-19.3l44.7-333.8c-29.8-19.5-44.7-47-44.7-82.5c0-37.5,16.7-66,50.1-85.6c5.7-106.4,30.8-191.2,75.5-254.4
	L25,633.9C13.7,629.8,8,621.8,8,610s5.7-19.8,17-23.9l863.3-271.3c2.1-0.5,4.6-0.8,7.7-0.8s5.7,0.3,7.7,0.8L1767,586.1
	C1778.3,590.2,1784,598.2,1784,610z"/>
</svg>
